# xmcd
#
# Track frame offsets:
#	150
#	16280
#	31726
#	51453
#	71748
#	84410
#	95440
#	108420
#	124592
#	144091
#	154799
#
# Disc length: 2446 seconds
#
# Revision: 0
# Processed by: cddbd v1.5.2PL0 Copyright (c) Steve Scherf et al.
# Submitted via: audiograbber 1.83.01
#
DISCID=86098c0b
DTITLE=Bob Chisolm - Live in Lido di Jeselo
DYEAR=2011
DGENRE=Easy Listening
TTITLE0=Just the two of us
TTITLE1=Ain't no sunshine
TTITLE2=Easy
TTITLE3=Just the way you are
TTITLE4=You are so beautiful
TTITLE5=The shadow of your smile
TTITLE6=Sitting on the dock of the bay
TTITLE7=Chain of fools
TTITLE8=Purple rain
TTITLE9=Going to Chicago
TTITLE10=Stormy mondy
EXTD=Contact:\nrobert_chisolm@me.com\nMobile: +49 172 205 3437\nwww.bob-chisolm
EXTD=com
EXTT0=
EXTT1=
EXTT2=
EXTT3=
EXTT4=
EXTT5=
EXTT6=
EXTT7=
EXTT8=
EXTT9=
EXTT10=
PLAYORDER=
